HIERARCHY
ROOT Character1_Hips
{
	OFFSET 0.000000 86.858185 1.182688
	CHANNELS 6 Xposition Yposition Zposition Xrotation Yrotation Zrotation
	JOINT Character1_LeftUpLeg
	{
		OFFSET 7.276832 -6.057800 0.207883
		CHANNELS 6 Xposition Yposition Zposition Xrotation Yrotation Zrotation
		JOINT Character1_LeftLeg
		{
			OFFSET -1.823140 -35.110466 -1.568847
			CHANNELS 6 Xposition Yposition Zposition Xrotation Yrotation Zrotation
			JOINT Character1_LeftFoot
			{
				OFFSET -1.031196 -37.817070 -1.726818
				CHANNELS 6 Xposition Yposition Zposition Xrotation Yrotation Zrotation
				JOINT Character1_LeftToeBase
				{
					OFFSET 0.202457 -5.287532 8.122427
					CHANNELS 6 Xposition Yposition Zposition Xrotation Yrotation Zrotation
					End Site
					{
						OFFSET 0.009223 0.000047 9.693953
					}
				}
			}
		}
	}
	JOINT Character1_RightUpLeg
	{
		OFFSET -7.276832 -6.057770 0.207879
		CHANNELS 6 Xposition Yposition Zposition Xrotation Yrotation Zrotation
		JOINT Character1_RightLeg
		{
			OFFSET 1.823196 -35.109627 -1.587624
			CHANNELS 6 Xposition Yposition Zposition Xrotation Yrotation Zrotation
			JOINT Character1_RightFoot
			{
				OFFSET 1.031267 -37.817833 -1.710079
				CHANNELS 6 Xposition Yposition Zposition Xrotation Yrotation Zrotation
				JOINT Character1_RightToeBase
				{
					OFFSET -0.202449 -5.287759 8.122276
					CHANNELS 6 Xposition Yposition Zposition Xrotation Yrotation Zrotation
					End Site
					{
						OFFSET 0.001154 -0.000006 9.693956
					}
				}
			}
		}
	}
	JOINT Character1_Spine
	{
		OFFSET -0.000001 2.271347 0.818150
		CHANNELS 6 Xposition Yposition Zposition Xrotation Yrotation Zrotation
		JOINT Character1_Spine1
		{
			OFFSET -0.000001 9.085945 0.955446
			CHANNELS 6 Xposition Yposition Zposition Xrotation Yrotation Zrotation
			JOINT Character1_Spine2
			{
				OFFSET -0.000002 8.765564 -0.142866
				CHANNELS 6 Xposition Yposition Zposition Xrotation Yrotation Zrotation
				JOINT Character1_LeftShoulder
				{
					OFFSET 4.211487 11.612236 -3.873799
					CHANNELS 6 Xposition Yposition Zposition Xrotation Yrotation Zrotation
					JOINT Character1_LeftArm
					{
						OFFSET 5.543700 0.000031 -0.000005
						CHANNELS 6 Xposition Yposition Zposition Xrotation Yrotation Zrotation
						JOINT Character1_LeftForeArm
						{
							OFFSET 23.377409 -0.123474 0.033367
							CHANNELS 6 Xposition Yposition Zposition Xrotation Yrotation Zrotation
							JOINT Character1_LeftHand
							{
								OFFSET 16.247719 -0.118858 0.035829
								CHANNELS 6 Xposition Yposition Zposition Xrotation Yrotation Zrotation
								JOINT Character1_LeftHandThumb1
								{
									OFFSET 2.510399 -0.904045 2.091601
									CHANNELS 6 Xposition Yposition Zposition Xrotation Yrotation Zrotation
									JOINT Character1_LeftHandThumb2
									{
										OFFSET 2.570465 -1.130470 1.584520
										CHANNELS 6 Xposition Yposition Zposition Xrotation Yrotation Zrotation
										JOINT Character1_LeftHandThumb3
										{
											OFFSET 1.420841 -0.605858 0.842600
											CHANNELS 6 Xposition Yposition Zposition Xrotation Yrotation Zrotation
											JOINT Character1_LeftHandThumb4
											{
												OFFSET 2.153469 -0.757797 1.312965
												CHANNELS 6 Xposition Yposition Zposition Xrotation Yrotation Zrotation
												End Site
												{
													OFFSET 2.158772 -0.733734 1.317914
												}
											}
										}
									}
								}
								JOINT Character1_LeftHandIndex1
								{
									OFFSET 8.043888 0.989311 2.480770
									CHANNELS 6 Xposition Yposition Zposition Xrotation Yrotation Zrotation
									JOINT Character1_LeftHandIndex2
									{
										OFFSET 2.427021 0.011856 0.268371
										CHANNELS 6 Xposition Yposition Zposition Xrotation Yrotation Zrotation
										JOINT Character1_LeftHandIndex3
										{
											OFFSET 1.609932 0.007866 0.037315
											CHANNELS 6 Xposition Yposition Zposition Xrotation Yrotation Zrotation
											JOINT Character1_LeftHandIndex4
											{
												OFFSET 2.130016 0.049431 0.114431
												CHANNELS 6 Xposition Yposition Zposition Xrotation Yrotation Zrotation
												End Site
												{
													OFFSET 2.119099 0.211617 -0.131005
												}
											}
										}
									}
								}
								JOINT Character1_LeftHandMiddle1
								{
									OFFSET 8.038177 1.007423 0.439338
									CHANNELS 6 Xposition Yposition Zposition Xrotation Yrotation Zrotation
									JOINT Character1_LeftHandMiddle2
									{
										OFFSET 2.527046 -0.234444 -0.080977
										CHANNELS 6 Xposition Yposition Zposition Xrotation Yrotation Zrotation
										JOINT Character1_LeftHandMiddle3
										{
											OFFSET 1.931313 -0.179352 -0.117768
											CHANNELS 6 Xposition Yposition Zposition Xrotation Yrotation Zrotation
											JOINT Character1_LeftHandMiddle4
											{
												OFFSET 2.196999 0.041229 -0.161456
												CHANNELS 6 Xposition Yposition Zposition Xrotation Yrotation Zrotation
												End Site
												{
													OFFSET 2.197571 -0.071640 -0.141814
												}
											}
										}
									}
								}
								JOINT Character1_LeftHandRing1
								{
									OFFSET 7.662090 0.616508 -1.366725
									CHANNELS 6 Xposition Yposition Zposition Xrotation Yrotation Zrotation
									JOINT Character1_LeftHandRing2
									{
										OFFSET 2.249855 -0.592636 -0.461933
										CHANNELS 6 Xposition Yposition Zposition Xrotation Yrotation Zrotation
										JOINT Character1_LeftHandRing3
										{
											OFFSET 1.521790 -0.400856 -0.248318
											CHANNELS 6 Xposition Yposition Zposition Xrotation Yrotation Zrotation
											JOINT Character1_LeftHandRing4
											{
												OFFSET 2.446365 -0.396080 -0.528466
												CHANNELS 6 Xposition Yposition Zposition Xrotation Yrotation Zrotation
												End Site
												{
													OFFSET 2.437840 -0.527443 -0.446790
												}
											}
										}
									}
								}
								JOINT Character1_LeftHandPinky1
								{
									OFFSET 6.585136 -0.139000 -2.766160
									CHANNELS 6 Xposition Yposition Zposition Xrotation Yrotation Zrotation
									JOINT Character1_LeftHandPinky2
									{
										OFFSET 1.631428 -0.600632 -0.502815
										CHANNELS 6 Xposition Yposition Zposition Xrotation Yrotation Zrotation
										JOINT Character1_LeftHandPinky3
										{
											OFFSET 1.227242 -0.468956 -0.457904
											CHANNELS 6 Xposition Yposition Zposition Xrotation Yrotation Zrotation
											JOINT Character1_LeftHandPinky4
											{
												OFFSET 1.696033 -0.584229 -0.687828
												CHANNELS 6 Xposition Yposition Zposition Xrotation Yrotation Zrotation
												End Site
												{
													OFFSET 1.705387 -0.567787 -0.678411
												}
											}
										}
									}
								}
							}
						}
					}
				}
				JOINT Character1_RightShoulder
				{
					OFFSET -4.211487 11.612236 -3.873799
					CHANNELS 6 Xposition Yposition Zposition Xrotation Yrotation Zrotation
					JOINT Character1_RightArm
					{
						OFFSET -5.543744 0.000023 -0.000004
						CHANNELS 6 Xposition Yposition Zposition Xrotation Yrotation Zrotation
						JOINT Character1_RightForeArm
						{
							OFFSET -23.377581 -0.123566 0.033386
							CHANNELS 6 Xposition Yposition Zposition Xrotation Yrotation Zrotation
							JOINT Character1_RightHand
							{
								OFFSET -16.247574 -0.118851 0.036247
								CHANNELS 6 Xposition Yposition Zposition Xrotation Yrotation Zrotation
								JOINT Character1_RightHandThumb1
								{
									OFFSET -2.510384 -0.904091 2.091566
									CHANNELS 6 Xposition Yposition Zposition Xrotation Yrotation Zrotation
									JOINT Character1_RightHandThumb2
									{
										OFFSET -2.579426 -1.121681 1.537416
										CHANNELS 6 Xposition Yposition Zposition Xrotation Yrotation Zrotation
										JOINT Character1_RightHandThumb3
										{
											OFFSET -1.429546 -0.616760 0.819528
											CHANNELS 6 Xposition Yposition Zposition Xrotation Yrotation Zrotation
											JOINT Character1_RightHandThumb4
											{
												OFFSET -2.167622 -0.774658 1.279505
												CHANNELS 6 Xposition Yposition Zposition Xrotation Yrotation Zrotation
												End Site
												{
													OFFSET -2.137974 -0.606712 1.413074
												}
											}
										}
									}
								}
								JOINT Character1_RightHandIndex1
								{
									OFFSET -8.043800 0.988876 2.481294
									CHANNELS 6 Xposition Yposition Zposition Xrotation Yrotation Zrotation
									JOINT Character1_RightHandIndex2
									{
										OFFSET -2.426987 0.011948 0.268470
										CHANNELS 6 Xposition Yposition Zposition Xrotation Yrotation Zrotation
										JOINT Character1_RightHandIndex3
										{
											OFFSET -1.609989 0.007927 0.037374
											CHANNELS 6 Xposition Yposition Zposition Xrotation Yrotation Zrotation
											JOINT Character1_RightHandIndex4
											{
												OFFSET -2.129982 0.049034 0.114512
												CHANNELS 6 Xposition Yposition Zposition Xrotation Yrotation Zrotation
												End Site
												{
													OFFSET -2.123772 0.204735 0.006035
												}
											}
										}
									}
								}
								JOINT Character1_RightHandMiddle1
								{
									OFFSET -8.038174 1.006859 0.439860
									CHANNELS 6 Xposition Yposition Zposition Xrotation Yrotation Zrotation
									JOINT Character1_RightHandMiddle2
									{
										OFFSET -2.526997 -0.234062 -0.080875
										CHANNELS 6 Xposition Yposition Zposition Xrotation Yrotation Zrotation
										JOINT Character1_RightHandMiddle3
										{
											OFFSET -1.931465 -0.179070 -0.117694
											CHANNELS 6 Xposition Yposition Zposition Xrotation Yrotation Zrotation
											JOINT Character1_RightHandMiddle4
											{
												OFFSET -2.196987 0.042816 -0.161370
												CHANNELS 6 Xposition Yposition Zposition Xrotation Yrotation Zrotation
												End Site
												{
													OFFSET -2.184029 -0.187660 -0.222307
												}
											}
										}
									}
								}
								JOINT Character1_RightHandRing1
								{
									OFFSET -7.662136 0.615837 -1.366219
									CHANNELS 6 Xposition Yposition Zposition Xrotation Yrotation Zrotation
									JOINT Character1_RightHandRing2
									{
										OFFSET -2.249901 -0.592049 -0.461829
										CHANNELS 6 Xposition Yposition Zposition Xrotation Yrotation Zrotation
										JOINT Character1_RightHandRing3
										{
											OFFSET -1.521889 -0.400475 -0.248259
											CHANNELS 6 Xposition Yposition Zposition Xrotation Yrotation Zrotation
											JOINT Character1_RightHandRing4
											{
												OFFSET -2.446423 -0.395401 -0.528361
												CHANNELS 6 Xposition Yposition Zposition Xrotation Yrotation Zrotation
												End Site
												{
													OFFSET -2.430859 -0.503899 -0.507441
												}
											}
										}
									}
								}
								JOINT Character1_RightHandPinky1
								{
									OFFSET -6.585262 -0.139153 -2.765680
									CHANNELS 6 Xposition Yposition Zposition Xrotation Yrotation Zrotation
									JOINT Character1_RightHandPinky2
									{
										OFFSET -1.631413 -0.601036 -0.502742
										CHANNELS 6 Xposition Yposition Zposition Xrotation Yrotation Zrotation
										JOINT Character1_RightHandPinky3
										{
											OFFSET -1.227207 -0.469040 -0.457860
											CHANNELS 6 Xposition Yposition Zposition Xrotation Yrotation Zrotation
											JOINT Character1_RightHandPinky4
											{
												OFFSET -1.696110 -0.584045 -0.687750
												CHANNELS 6 Xposition Yposition Zposition Xrotation Yrotation Zrotation
												End Site
												{
													OFFSET -1.689350 -0.584435 -0.703875
												}
											}
										}
									}
								}
							}
						}
					}
				}
				JOINT Character1_Neck
				{
					OFFSET -0.000001 15.167763 -4.080687
					CHANNELS 6 Xposition Yposition Zposition Xrotation Yrotation Zrotation
					JOINT Character1_Head
					{
						OFFSET -0.000001 7.825302 -0.202157
						CHANNELS 6 Xposition Yposition Zposition Xrotation Yrotation Zrotation
						JOINT J_R_HairTail_00
						{
							OFFSET -6.209000 2.264816 -7.399083
							CHANNELS 6 Xposition Yposition Zposition Xrotation Yrotation Zrotation
							End Site
							{
								OFFSET -2.180591 -11.067337 -2.694725
							}
						}
					}
				}
				JOINT J_R_Mune_00
				{
					OFFSET -2.925001 2.684891 0.061887
					CHANNELS 6 Xposition Yposition Zposition Xrotation Yrotation Zrotation
					JOINT J_R_Mune_01
					{
						OFFSET -7.794388 2.801010 16.635391
						CHANNELS 6 Xposition Yposition Zposition Xrotation Yrotation Zrotation
						JOINT J_R_Mune_02
						{
							OFFSET 6.838630 -2.377007 -14.605499
							CHANNELS 6 Xposition Yposition Zposition Xrotation Yrotation Zrotation
							End Site
							{
								OFFSET -14.795670 -0.834061 -6.791919
							}
						}
					}
				}
				JOINT J_L_Mune_00
				{
					OFFSET 2.925019 2.684776 0.061883
					CHANNELS 6 Xposition Yposition Zposition Xrotation Yrotation Zrotation
					JOINT J_L_Mune_01
					{
						OFFSET 7.794374 2.801254 16.635433
						CHANNELS 6 Xposition Yposition Zposition Xrotation Yrotation Zrotation
						JOINT J_L_Mune_02
						{
							OFFSET -6.838619 -2.376648 -14.605538
							CHANNELS 3 Xrotation Yrotation Zrotation
							End Site
							{
								OFFSET 14.795649 -0.834076 -6.791907
							}
						}
					}
				}
			}
		}
	}
}
MOTION
Frames: 3
Frame Time: 0.033333
0.664605 82.966400 -0.656855 9.744766 1.965668 0.102800 7.276833 -6.057791 0.207884 -32.620905 -10.829323 -5.459331 -1.823139 -35.110458 -1.568849 37.230770 5.316261 0.082712 -1.031196 -37.817066 -1.726822 -16.447883 0.363235 0.393314 0.202457 -5.287531 8.122425 0.000015 0.000146 -0.000761 -7.276831 -6.057764 0.207872 -36.533084 -2.814381 0.957487 1.823196 -35.109627 -1.587615 75.425834 -2.324736 -0.127153 1.031268 -37.817837 -1.710068 56.710552 -0.169811 -3.905566 -0.202449 -5.287761 8.122277 0.000002 -0.000230 -0.000484 -0.000001 2.271352 0.818147 -3.698185 1.964841 -0.156649 -0.000001 9.085942 0.955446 10.944079 -1.373757 0.408940 -0.000002 8.765545 -0.142864 16.772364 -1.997448 0.298320 4.211488 11.612249 -3.873797 -0.299477 7.129997 2.413194 5.543691 0.000021 -0.000005 -4.604214 -14.086235 -66.049664 23.377419 -0.123481 0.033361 135.708701 -111.884277 143.196583 16.247721 -0.118855 0.035829 19.931636 -27.872402 4.669207 2.510401 -0.904053 2.091591 -2.573659 -1.715399 7.431943 2.570472 -1.130475 1.584518 4.641668 14.920084 2.292925 1.420839 -0.605867 0.842593 5.373817 23.291596 2.709192 2.153481 -0.757805 1.312963 -0.000564 0.001069 -0.006154 8.043888 0.989310 2.480756 11.299772 17.819692 -13.063644 2.427034 0.011862 0.268367 1.009810 -0.384746 -47.955701 1.609934 0.007863 0.037320 5.070428 0.479390 -72.267008 2.130016 0.049438 0.114432 -0.003461 -0.004186 -0.000978 8.038178 1.007431 0.439318 3.402673 2.055643 -12.167079 2.527049 -0.234447 -0.080971 -3.028531 2.088365 -64.567752 1.931311 -0.179345 -0.117777 -2.252884 5.901864 -96.156721 2.197002 0.041220 -0.161453 -0.002913 -0.003989 0.001098 7.662085 0.616482 -1.366745 -10.608116 -12.037110 -28.589872 2.249856 -0.592637 -0.461920 -1.252341 1.316900 -32.604851 1.521786 -0.400862 -0.248305 -3.135502 22.662448 -116.846546 2.446366 -0.396073 -0.528472 -0.003334 -0.001581 0.000944 6.585134 -0.138992 -2.766162 -11.889372 -21.246712 8.769309 1.631414 -0.600630 -0.502812 -9.086180 6.924527 -32.750969 1.227239 -0.468966 -0.457910 -8.158176 30.499711 -96.670502 1.696032 -0.584234 -0.687833 -0.000438 -0.000155 -0.000328 -4.211488 11.612245 -3.873801 0.136412 2.007384 -3.883815 -5.543747 0.000025 0.000001 -10.512938 16.111827 70.318792 -23.377588 -0.123570 0.033380 105.644209 116.062645 -129.205664 -16.247578 -0.118851 0.036238 22.900468 16.288760 3.349865 -2.510386 -0.904106 2.091548 -7.055094 -0.039844 -13.731579 -2.579425 -1.121674 1.537418 6.117553 -19.520616 -2.673146 -1.429542 -0.616758 0.819537 7.326754 -30.565018 -3.014660 -2.167624 -0.774652 1.279515 0.009813 0.003691 -0.006250 -8.043802 0.988879 2.481279 10.189799 -6.922035 14.273081 -2.426998 0.011950 0.268461 0.647696 0.129475 54.150932 -1.609993 0.007922 0.037376 5.289972 -1.205831 74.972425 -2.129977 0.049053 0.114512 -0.000811 -0.008544 0.004690 -8.038176 1.006852 0.439848 -12.063910 5.121916 22.478352 -2.526994 -0.234058 -0.080878 -2.282179 -1.017593 60.455131 -1.931463 -0.179053 -0.117706 -2.633643 -3.878279 86.415123 -2.196997 0.042803 -0.161379 -0.000752 -0.002736 -0.003725 -7.662139 0.615846 -1.366231 -18.192275 18.329643 27.524628 -2.249900 -0.592043 -0.461847 -0.892414 -0.319010 29.239364 -1.521890 -0.400473 -0.248266 -9.282707 -12.036638 97.628477 -2.446427 -0.395400 -0.528370 0.003237 0.000600 0.007124 -6.585262 -0.139161 -2.765702 -25.880811 22.983197 -15.674951 -1.631415 -0.601029 -0.502743 -9.199458 -7.079057 33.283799 -1.227201 -0.469036 -0.457849 -5.768908 -32.184312 97.834202 -1.696108 -0.584052 -0.687744 0.003678 0.003611 -0.005576 -0.000001 15.167758 -4.080686 -12.614184 -0.941456 0.457199 -0.000000 7.825290 -0.202158 -12.531116 -0.558232 0.487174 -6.208994 2.264843 -7.399086 16.629410 -2.172645 -3.709078 -2.925002 2.684891 0.061888 -0.000000 -0.000002 0.000000 -7.794385 2.801010 16.635386 0.000000 -0.000001 0.000000 6.838630 -2.377006 -14.605499 -0.000001 -0.000002 -0.000001 2.925019 2.684792 0.061883 0.000001 0.000000 0.000000 7.794377 2.801254 16.635431 0.000002 -0.000000 -0.000000 -0.000005 0.000000 0.000000 
0.656082 83.003227 -0.632221 9.744738 1.965649 0.102800 7.276832 -6.057807 0.207881 -26.455703 -11.153771 -5.338297 -1.823139 -35.110466 -1.568848 36.483725 5.651150 0.191384 -1.031196 -37.817066 -1.726822 -18.826131 0.388891 0.761289 0.202458 -5.287532 8.122424 0.000010 0.000127 -0.000694 -7.276831 -6.057766 0.207883 -44.810095 -3.080292 -0.013883 1.823197 -35.109615 -1.587613 80.425450 -1.190532 0.063366 1.031268 -37.817837 -1.710067 50.624484 -0.143591 -3.632757 -0.202449 -5.287760 8.122278 0.000002 -0.000256 -0.000494 -0.000001 2.271351 0.818150 -3.721605 1.964914 -0.155793 -0.000001 9.085949 0.955448 10.962780 -1.373613 0.409336 -0.000002 8.765572 -0.142865 16.788311 -2.735349 0.857010 4.211488 11.612226 -3.873798 -0.247679 7.131971 1.995463 5.543695 0.000032 0.000003 -9.160593 -19.442432 -66.574346 23.377420 -0.123479 0.033371 119.599631 -107.303897 129.658519 16.247719 -0.118854 0.035835 20.210337 -26.840057 2.780629 2.510405 -0.904048 2.091600 -2.573670 -1.715347 7.431946 2.570469 -1.130478 1.584519 4.641653 14.920089 2.293019 1.420847 -0.605851 0.842583 5.373989 23.291517 2.709139 2.153462 -0.757791 1.312966 -0.000582 0.001051 -0.006166 8.043889 0.989304 2.480770 11.299777 17.819721 -13.063610 2.427028 0.011859 0.268378 1.009795 -0.384692 -47.955656 1.609952 0.007866 0.037314 5.070334 0.479535 -72.266926 2.130020 0.049442 0.114426 -0.003334 -0.004225 -0.000968 8.038184 1.007431 0.439337 3.402700 2.055660 -12.167089 2.527047 -0.234435 -0.080981 -3.028501 2.088404 -64.567698 1.931330 -0.179346 -0.117770 -2.252847 5.901830 -96.156687 2.197003 0.041220 -0.161457 -0.002957 -0.004007 0.001017 7.662087 0.616489 -1.366731 -10.608118 -12.037065 -28.589838 2.249864 -0.592629 -0.461914 -1.252345 1.316895 -32.604895 1.521784 -0.400862 -0.248303 -3.135578 22.662361 -116.846423 2.446371 -0.396071 -0.528468 -0.003432 -0.001499 0.000930 6.585138 -0.138995 -2.766159 -11.889327 -21.246656 8.769383 1.631419 -0.600639 -0.502826 -9.086209 6.924559 -32.750931 1.227243 -0.468957 -0.457915 -8.158133 30.499629 -96.670556 1.696034 -0.584231 -0.687836 -0.000489 -0.000136 -0.000315 -4.211487 11.612228 -3.873795 0.113952 1.834813 -3.548211 -5.543738 0.000024 -0.000003 -4.359204 11.845858 71.441832 -23.377560 -0.123556 0.033378 113.420530 117.499922 -133.541236 -16.247578 -0.118858 0.036250 22.783836 14.334115 3.905605 -2.510388 -0.904088 2.091549 -7.054986 -0.039831 -13.731512 -2.579434 -1.121664 1.537426 6.117441 -19.520650 -2.673157 -1.429540 -0.616760 0.819540 7.326693 -30.565018 -3.014872 -2.167615 -0.774652 1.279522 0.009797 0.003682 -0.006239 -8.043797 0.988870 2.481287 10.189811 -6.922102 14.273046 -2.426991 0.011938 0.268473 0.647714 0.129600 54.150945 -1.609995 0.007927 0.037376 5.289883 -1.205805 74.972487 -2.129982 0.049057 0.114504 -0.000817 -0.008555 0.004668 -8.038176 1.006862 0.439852 -12.063909 5.121918 22.478376 -2.526989 -0.234065 -0.080869 -2.282121 -1.017528 60.455090 -1.931458 -0.179054 -0.117700 -2.633689 -3.878343 86.415130 -2.196986 0.042812 -0.161367 -0.000735 -0.002743 -0.003650 -7.662140 0.615841 -1.366233 -18.192197 18.329566 27.524605 -2.249914 -0.592045 -0.461818 -0.892329 -0.318964 29.239360 -1.521890 -0.400469 -0.248252 -9.282682 -12.036855 97.628559 -2.446434 -0.395386 -0.528364 0.003458 0.000628 0.007083 -6.585267 -0.139144 -2.765699 -25.880849 22.983143 -15.674927 -1.631429 -0.601036 -0.502750 -9.199403 -7.079034 33.283761 -1.227211 -0.469041 -0.457855 -5.768925 -32.184193 97.834264 -1.696101 -0.584034 -0.687747 0.003601 0.003585 -0.005579 -0.000001 15.167756 -4.080681 -12.620060 -0.473419 0.424928 -0.000001 7.825303 -0.202160 -12.534942 -0.147222 0.504526 -6.208993 2.264837 -7.399086 16.217779 -2.155411 -3.636048 -2.925002 2.684883 0.061889 0.000001 -0.000002 0.000000 -7.794385 2.801001 16.635391 0.000004 -0.000002 0.000001 6.838626 -2.376999 -14.605495 -0.000001 0.000002 0.000000 2.925018 2.684784 0.061881 0.000001 0.000000 0.000000 7.794374 2.801247 16.635433 -0.000001 -0.000000 0.000000 -0.000002 0.000002 0.000000 
0.567465 83.959946 -0.231112 9.744799 1.965689 0.102858 7.276833 -6.057792 0.207882 -15.265391 -12.244161 -4.140289 -1.823140 -35.110477 -1.568848 27.403194 6.421589 -0.042138 -1.031196 -37.817070 -1.726820 -16.556539 0.170988 1.528133 0.202457 -5.287531 8.122427 0.000015 0.000157 -0.000718 -7.276831 -6.057767 0.207893 -53.898286 -3.104798 -1.305047 1.823197 -35.109634 -1.587617 95.096177 0.059093 -0.194912 1.031267 -37.817833 -1.710076 36.932370 0.159560 -3.161405 -0.202449 -5.287760 8.122276 -0.000124 -0.000244 -0.000490 -0.000001 2.271351 0.818148 -3.377959 1.963614 -0.167619 -0.000001 9.085941 0.955444 10.687958 -1.375451 0.402709 -0.000002 8.765569 -0.142870 16.913077 -3.530062 1.366432 4.211488 11.612235 -3.873796 -0.191236 7.133704 1.540816 5.543688 0.000034 0.000003 -14.105742 -25.011255 -66.500928 23.377405 -0.123479 0.033369 102.235638 -104.560907 115.401100 16.247719 -0.118852 0.035849 19.797510 -25.767280 0.985934 2.510406 -0.904052 2.091602 -2.573754 -1.715295 7.431997 2.570468 -1.130484 1.584520 4.641674 14.920068 2.292954 1.420858 -0.605860 0.842602 5.373916 23.291618 2.709236 2.153465 -0.757810 1.312960 -0.000547 0.000998 -0.006213 8.043886 0.989308 2.480765 11.299737 17.819791 -13.063568 2.427020 0.011871 0.268367 1.009772 -0.384711 -47.955783 1.609946 0.007871 0.037308 5.070414 0.479640 -72.266946 2.130023 0.049440 0.114430 -0.003143 -0.004197 -0.000971 8.038175 1.007432 0.439330 3.402644 2.055729 -12.167046 2.527046 -0.234454 -0.080973 -3.028507 2.088503 -64.567793 1.931307 -0.179339 -0.117763 -2.252736 5.901742 -96.156735 2.196998 0.041217 -0.161453 -0.003026 -0.003980 0.001103 7.662092 0.616498 -1.366723 -10.608132 -12.037088 -28.589908 2.249864 -0.592637 -0.461938 -1.252345 1.316905 -32.604851 1.521797 -0.400857 -0.248302 -3.135466 22.662361 -116.846560 2.446359 -0.396085 -0.528466 -0.003423 -0.001623 0.001016 6.585135 -0.138997 -2.766160 -11.889323 -21.246673 8.769381 1.631418 -0.600637 -0.502810 -9.086235 6.924568 -32.750965 1.227250 -0.468951 -0.457909 -8.158093 30.499557 -96.670543 1.696028 -0.584228 -0.687835 -0.000505 -0.000146 -0.000328 -4.211487 11.612237 -3.873792 0.092605 1.654369 -3.197753 -5.543744 0.000023 -0.000008 2.174527 7.422686 71.807425 -23.377583 -0.123548 0.033376 121.292685 119.276031 -138.288723 -16.247568 -0.118840 0.036242 22.311808 12.372005 4.440605 -2.510381 -0.904091 2.091568 -7.054937 -0.039764 -13.731483 -2.579433 -1.121684 1.537411 6.117421 -19.520676 -2.673189 -1.429556 -0.616771 0.819535 7.326806 -30.564929 -3.014795 -2.167623 -0.774659 1.279518 0.009725 0.003587 -0.006216 -8.043799 0.988885 2.481294 10.189825 -6.922079 14.273117 -2.426994 0.011941 0.268464 0.647713 0.129613 54.150829 -1.609995 0.007930 0.037371 5.289973 -1.205711 74.972514 -2.129983 0.049022 0.114514 -0.000926 -0.008558 0.004687 -8.038168 1.006871 0.439866 -12.063905 5.121918 22.478405 -2.526998 -0.234041 -0.080870 -2.282051 -1.017409 60.455036 -1.931467 -0.179048 -0.117692 -2.633791 -3.878275 86.415185 -2.196999 0.042821 -0.161367 -0.000775 -0.002753 -0.003687 -7.662134 0.615835 -1.366221 -18.192159 18.329617 27.524604 -2.249893 -0.592033 -0.461833 -0.892318 -0.318914 29.239394 -1.521887 -0.400465 -0.248254 -9.282728 -12.036960 97.628579 -2.446427 -0.395392 -0.528376 0.003501 0.000677 0.007118 -6.585259 -0.139155 -2.765680 -25.880844 22.983211 -15.674932 -1.631419 -0.601036 -0.502753 -9.199397 -7.079060 33.283765 -1.227216 -0.469027 -0.457863 -5.768973 -32.184203 97.834202 -1.696105 -0.584061 -0.687750 0.003650 0.003575 -0.005553 -0.000001 15.167748 -4.080682 -12.090651 0.113438 0.386826 -0.000001 7.825292 -0.202167 -11.674587 0.403348 0.524131 -6.208998 2.264824 -7.399086 17.027477 -2.276946 -3.703227 -2.925001 2.684875 0.061889 -0.000002 -0.000000 0.000000 -7.794387 2.801002 16.635401 0.000002 -0.000001 0.000001 6.838629 -2.376999 -14.605501 0.000003 -0.000002 -0.000000 2.925018 2.684791 0.061882 0.000002 0.000002 -0.000000 7.794373 2.801255 16.635427 -0.000002 0.000002 0.000001 0.000002 0.000004 -0.000000 
